<?xml version="1.0" standalone="no"?><svg xmlns="http://www.w3.org/2000/svg" viewBox="0 0 1440 320"><path fill="#e7008a" fill-opacity="1" d="M0,96L0,256L62.6,256L62.6,128L125.2,128L125.2,32L187.8,32L187.8,32L250.4,32L250.4,32L313,32L313,192L375.7,192L375.7,0L438.3,0L438.3,256L500.9,256L500.9,64L563.5,64L563.5,288L626.1,288L626.1,128L688.7,128L688.7,128L751.3,128L751.3,224L813.9,224L813.9,192L876.5,192L876.5,128L939.1,128L939.1,32L1001.7,32L1001.7,0L1064.3,0L1064.3,0L1127,0L1127,32L1189.6,32L1189.6,256L1252.2,256L1252.2,32L1314.8,32L1314.8,256L1377.4,256L1377.4,128L1440,128L1440,320L1377.4,320L1377.4,320L1314.8,320L1314.8,320L1252.2,320L1252.2,320L1189.6,320L1189.6,320L1127,320L1127,320L1064.3,320L1064.3,320L1001.7,320L1001.7,320L939.1,320L939.1,320L876.5,320L876.5,320L813.9,320L813.9,320L751.3,320L751.3,320L688.7,320L688.7,320L626.1,320L626.1,320L563.5,320L563.5,320L500.9,320L500.9,320L438.3,320L438.3,320L375.7,320L375.7,320L313,320L313,320L250.4,320L250.4,320L187.8,320L187.8,320L125.2,320L125.2,320L62.6,320L62.6,320L0,320L0,320Z"></path></svg>